<svg xmlns="http://www.w3.org/2000/svg" viewBox="0 0 640 400" role="img" aria-label="Geluidsdrager">
  <rect width="640" height="400" fill="#13295C"/>
  <rect x="70" y="60" width="500" height="290" rx="26" fill="#E9F5FF"/>
  <rect x="70" y="60" width="500" height="290" rx="26" fill="none" stroke="#9ED8FF" stroke-width="6"/>
  <rect x="115" y="95" width="410" height="150" rx="14" fill="#FFC24B"/>
  <rect x="115" y="95" width="410" height="34" rx="14" fill="#0A1A3F" opacity=".12"/>
  <rect x="190" y="145" width="260" height="78" rx="39" fill="#0A1A3F"/>
  <circle cx="238" cy="184" r="28" fill="#E9F5FF"/><circle cx="402" cy="184" r="28" fill="#E9F5FF"/>
  <g fill="#0A1A3F"><circle cx="238" cy="184" r="9"/><circle cx="402" cy="184" r="9"/></g>
  <g stroke="#0A1A3F" stroke-width="5"><path d="M238 160v48M214 184h48M402 160v48M378 184h48"/></g>
  <rect x="290" y="165" width="60" height="38" fill="#3B2A1A"/>
  <path d="M175 350l30-70h230l30 70z" fill="#C9D9EA"/>
  <g fill="#0A1A3F"><circle cx="250" cy="318" r="10"/><circle cx="390" cy="318" r="10"/>
  <circle cx="100" cy="90" r="8"/><circle cx="540" cy="90" r="8"/><circle cx="100" cy="320" r="8"/><circle cx="540" cy="320" r="8"/></g>
</svg>
